<svg xmlns="http://www.w3.org/2000/svg" viewBox="0 0 132 77">
    <g id="fish">
        <path d="M131.3,36.39c-12.62-15.67-25.87-24.5-46.91-28.25C57.81,3.64,32.19,12.47,14.8,32A53.2,53.2,0,0,1,7.65,3.14C7.69,1.21,5.39-.14,3.46,0A4,4,0,0,0,.06,3.85C-.6,18.73,4.38,29.52,10,38.36a57.77,57.77,0,0,0-10,34.52,3.9,3.9,0,0,0,3.4,3.83c1.93.16,4.23-1.19,4.18-3.12A53.3,53.3,0,0,1,14.8,44.74c18.47,20.9,44.7,26.92,64.89,24.65,23.89-2.68,39.61-13.78,51.51-28.78a3.08,3.08,0,0,0,.86-2.24A3.12,3.12,0,0,0,131.3,36.39ZM51.12,60c-12.68-4-24.33-11.8-31.95-21.52C26.79,28.78,38.47,21,51.12,16.94a66.64,66.64,0,0,1,26.67-2.72C65.71,31.7,69.71,50.64,77.71,62.6,68.51,63.12,59.74,62.74,51.12,60Zm35.16,1.28a35,35,0,0,1,0-45.71c14.8,3.28,28.35,11.25,37.18,22.86C114.62,50,101.07,58,86.28,61.27Z"/>
        <path d="M97.32,27.89c-6.43,0-11.65,4.7-11.65,10.5s5.22,10.5,11.65,10.5S109,44.19,109,38.39,103.75,27.89,97.32,27.89Zm0,14.06a3.58,3.58,0,1,1,3.91-3.56A3.74,3.74,0,0,1,97.32,42Z"/>
    </g>
</svg>
