<svg xmlns="http://www.w3.org/2000/svg" width="32" height="25" viewBox="0 0 32.01 24.41">
  <path d="M2,4H1A1.1,1.1,0,0,0,0,5V23.4a1.11,1.11,0,0,0,1.4,1,25.07,25.07,0,0,1,12-.25c-1.8-1.87-5.26-2.9-8.49-2.84C3,21.07,2.06,20.08,2,18.36Z" transform="translate(0 -0.01)"/>
  <path d="M3.81,1.06l0,17a1.12,1.12,0,0,0,1.12,1.3c4.31.06,7.74,1.28,10.18,3.78v-18C13.89,2.28,10.33,0,4.9,0A1,1,0,0,0,3.81,1.06Z" transform="translate(0 -0.01)"/>
  <path d="M30,4h1a1.1,1.1,0,0,1,1,1V23.4a1.11,1.11,0,0,1-1.4,1,25.07,25.07,0,0,0-12-.25c1.8-1.87,5.26-2.9,8.49-2.84,1.9-.24,2.85-1.24,2.92-2.95Z" transform="translate(0 -0.01)"/>
  <path class="cls-1" d="M28.19,1.06l0,17a1.12,1.12,0,0,1-1.12,1.3c-4.31.06-7.74,1.28-10.18,3.78v-18C18.12,2.28,21.68,0,27.1,0A1,1,0,0,1,28.19,1.06Z" transform="translate(0 -0.01)"/>
</svg>
