<?xml version="1.0" encoding="utf-8"?>
<!-- Generator: Adobe Illustrator 21.1.0, SVG Export Plug-In . SVG Version: 6.00 Build 0)  -->
<svg version="1.1" id="Слой_1" xmlns="http://www.w3.org/2000/svg" xmlns:xlink="http://www.w3.org/1999/xlink" x="0px" y="0px"
	 viewBox="0 0 132.2 77" style="enable-background:new 0 0 132.2 77;" xml:space="preserve">
<style type="text/css">
	.st0{clip-path:url(#SVGID_2_);}
	.st1{fill:#00519C;}
</style>
<g>
	<defs>
		<rect id="SVGID_1_" y="-21" width="132.2" height="119"/>
	</defs>
	<clipPath id="SVGID_2_">
		<use xlink:href="#SVGID_1_"  style="overflow:visible;"/>
	</clipPath>
	<g class="st0">
		<path class="st1" d="M0,73.4c0,1.9,1.7,3.5,3.9,3.5s3.9-1.6,3.9-3.5V71c0-9.4,2.6-18.3,7.1-26.1c13.5,15.5,34,25,56.7,25
			c22.1,0,43.2-9.3,56.8-25.6l3.1-3.7c0,0,0,0,0,0c1-1.2,1-2.9,0-4.1c0,0,0,0,0,0l-3.1-3.7C115,16.6,93.9,7.1,71.5,7.1
			c-22.6,0-43.2,9.4-56.7,25C10.3,24.3,7.7,15.4,7.7,6V3.6c0-1.9-1.7-3.5-3.9-3.5S0,1.7,0,3.6V6c0,11.6,3.5,22.8,10,32.5
			C3.5,48.3,0,59.4,0,71V73.4z M122.2,36.9l1.4,1.6l-1.4,1.6c-8.9,10.6-21.7,18.1-35.8,21.2C80.9,54.7,78,46.7,78,38.5
			c0-8.2,3-16.2,8.4-22.8C100.5,18.8,113.3,26.2,122.2,36.9z M71.5,14.1c2.2,0,4.3,0.1,6.4,0.3c-5,7.2-7.7,15.5-7.7,24.1
			c0,8.6,2.7,16.9,7.7,24.1c-2.1,0.2-4.3,0.3-6.4,0.3c-21.6,0-40.8-9.7-52.3-24.4C30.8,23.8,49.9,14.1,71.5,14.1z"/>
		<path class="st1" d="M85.7,38.5C85.7,44.3,91,49,97.4,49c6.4,0,11.6-4.7,11.6-10.5c0-5.8-5.2-10.5-11.6-10.5
			C91,28,85.7,32.7,85.7,38.5z M97.4,35c2.1,0,3.9,1.6,3.9,3.5c0,1.9-1.7,3.5-3.9,3.5c-2.1,0-3.9-1.6-3.9-3.5
			C93.5,36.6,95.2,35,97.4,35z"/>
	</g>
</g>
</svg>
